# Blender v2.78 (sub 0) OBJ File: 'polyNave2.blend'
# www.blender.org
o cabina_Cube.001
v -0.353117 -0.001132 -1.000000
v -0.353117 0.132649 -1.000000
v -0.172741 -0.001132 1.000000
v -0.172741 0.266431 -1.000000
v -0.262929 0.199540 -1.000000
v -0.179183 0.013201 0.857143
v -0.185625 0.027535 0.714286
v -0.192067 0.041869 0.571429
v -0.198509 0.056203 0.428571
v -0.204951 0.070536 0.285714
v -0.211393 0.084870 0.142857
v -0.217835 0.099204 0.000000
v -0.224277 0.113538 -0.142857
v -0.230719 0.127871 -0.285714
v -0.237161 0.142205 -0.428571
v -0.243603 0.156539 -0.571429
v -0.250045 0.170873 -0.714286
v -0.256487 0.185206 -0.857143
v 0.353117 -0.001132 -1.000000
v 0.353117 0.132649 -1.000000
v 0.172741 -0.001132 1.000000
v 0.172741 0.266431 -1.000000
v 0.262929 0.199540 -1.000000
v 0.179183 0.013201 0.857143
v 0.185625 0.027535 0.714286
v 0.192067 0.041869 0.571429
v 0.198509 0.056203 0.428571
v 0.204951 0.070536 0.285714
v 0.211393 0.084870 0.142857
v 0.217835 0.099204 0.000000
v 0.224277 0.113538 -0.142857
v 0.230719 0.127871 -0.285714
v 0.237161 0.142205 -0.428571
v 0.243603 0.156539 -0.571429
v 0.250045 0.170873 -0.714286
v 0.256487 0.185206 -0.857143
v -0.353117 0.001132 -1.000000
v -0.353117 -0.132649 -1.000000
v -0.172741 0.001132 1.000000
v -0.172741 -0.266431 -1.000000
v -0.262929 -0.199540 -1.000000
v -0.179183 -0.013201 0.857143
v -0.185625 -0.027535 0.714286
v -0.192067 -0.041869 0.571429
v -0.198509 -0.056203 0.428571
v -0.204951 -0.070536 0.285714
v -0.211393 -0.084870 0.142857
v -0.217835 -0.099204 0.000000
v -0.224277 -0.113538 -0.142857
v -0.230719 -0.127871 -0.285714
v -0.237161 -0.142205 -0.428571
v -0.243603 -0.156539 -0.571429
v -0.250045 -0.170873 -0.714286
v -0.256487 -0.185206 -0.857143
v 0.353117 0.001132 -1.000000
v 0.353117 -0.132649 -1.000000
v 0.172741 0.001132 1.000000
v 0.172741 -0.266431 -1.000000
v 0.262929 -0.199540 -1.000000
v 0.179183 -0.013201 0.857143
v 0.185625 -0.027535 0.714286
v 0.192067 -0.041869 0.571429
v 0.198509 -0.056203 0.428571
v 0.204951 -0.070536 0.285714
v 0.211393 -0.084870 0.142857
v 0.217835 -0.099204 0.000000
v 0.224277 -0.113538 -0.142857
v 0.230719 -0.127871 -0.285714
v 0.237161 -0.142205 -0.428571
v 0.243603 -0.156539 -0.571429
v 0.250045 -0.170873 -0.714286
v 0.256487 -0.185206 -0.857143
vn -0.5923 0.7986 0.1068
vn -0.9960 0.0000 0.0898
vn 0.5923 0.7986 0.1068
vn 0.9960 0.0000 0.0898
vn -0.5923 -0.7986 0.1068
vn 0.5923 -0.7986 0.1068
vn 0.0000 0.9912 0.1326
vn 0.0000 -0.9912 0.1326
s off
f 4//1 5//1 2//1 3//1
f 1//2 3//2 2//2
f 22//3 21//3 20//3 23//3
f 19//4 20//4 21//4
f 40//5 39//5 38//5 41//5
f 37//2 38//2 39//2
f 58//6 59//6 56//6 57//6
f 55//4 57//4 56//4
f 3//7 21//7 22//7 4//7
f 39//8 40//8 58//8 57//8
l 18 5
l 3 6
l 6 7
l 7 8
l 8 9
l 9 10
l 10 11
l 11 12
l 12 13
l 13 14
l 14 15
l 15 16
l 16 17
l 17 18
l 36 23
l 21 24
l 24 25
l 25 26
l 26 27
l 27 28
l 28 29
l 29 30
l 30 31
l 31 32
l 32 33
l 33 34
l 34 35
l 35 36
l 54 41
l 39 42
l 42 43
l 43 44
l 44 45
l 45 46
l 46 47
l 47 48
l 48 49
l 49 50
l 50 51
l 51 52
l 52 53
l 53 54
l 72 59
l 57 60
l 60 61
l 61 62
l 62 63
l 63 64
l 64 65
l 65 66
l 66 67
l 67 68
l 68 69
l 69 70
l 70 71
l 71 72
o ala_4_D_R_Plane.004
v -0.642490 -0.267034 -0.995625
v -0.548434 -0.360713 -0.998118
v -0.326112 -0.355213 -0.995625
v -0.332926 -0.171612 1.718681
v -0.642490 -0.267034 -0.995625
v -0.485240 -0.311123 -0.995625
v -0.244002 -0.163943 -0.556285
v -0.462699 -0.289311 -0.589413
v -0.265328 -0.198923 -0.839112
v -0.476274 -0.304699 -0.849270
vn 0.0239 -0.9974 0.0675
vn 0.2679 0.9613 -0.0644
vn -0.7004 -0.7060 0.1047
vn 0.0103 0.0371 -0.9993
vn -0.4880 0.8700 -0.0708
vn -0.4469 0.8941 -0.0296
s off
f 74//9 75//9 76//9
f 75//10 78//10 77//10 76//10
f 77//11 74//11 76//11
f 74//12 77//12 78//12 75//12
f 80//13 79//13 81//13
f 80//14 81//14 82//14
l 76 78
o ala_3_D_L_Plane.005
v 0.637418 -0.263632 -0.995625
v 0.545239 -0.357311 -0.998118
v 0.322917 -0.351811 -0.995625
v 0.329730 -0.168210 1.718681
v 0.641172 -0.263632 -0.995625
v 0.482044 -0.307721 -0.995625
v 0.240806 -0.160541 -0.556285
v 0.459504 -0.285909 -0.589413
v 0.262133 -0.195521 -0.839112
v 0.473079 -0.301297 -0.849270
vn -0.0239 -0.9974 0.0675
vn -0.2665 0.9617 -0.0644
vn 0.6934 -0.7129 0.1046
vn -0.0103 0.0371 -0.9993
vn 0.4880 0.8700 -0.0708
vn 0.4469 0.8941 -0.0296
s off
f 84//15 86//15 85//15
f 85//16 86//16 87//16 88//16
f 87//17 86//17 84//17
f 84//18 85//18 88//18 87//18
f 90//19 91//19 89//19
f 90//20 92//20 91//20
l 86 88
o ala_2_U_L_Plane.001
v 0.637418 0.268791 -0.995625
v 0.545239 0.362470 -0.998118
v 0.322917 0.356970 -0.995625
v 0.329730 0.173369 1.718681
v 0.641172 0.268791 -0.995625
v 0.482044 0.312880 -0.995625
v 0.240806 0.165700 -0.556285
v 0.459504 0.291068 -0.589413
v 0.262133 0.200680 -0.839112
v 0.473079 0.306456 -0.849270
vn -0.0239 0.9974 0.0675
vn -0.2665 -0.9617 -0.0644
vn 0.6934 0.7129 0.1046
vn -0.0103 -0.0371 -0.9993
vn 0.4880 -0.8700 -0.0708
vn 0.4469 -0.8941 -0.0296
s off
f 94//21 95//21 96//21
f 95//22 98//22 97//22 96//22
f 97//23 94//23 96//23
f 94//24 97//24 98//24 95//24
f 100//25 99//25 101//25
f 100//26 101//26 102//26
l 96 98
o ala_1_U_R_Plane.003
v -0.642490 0.268791 -0.995625
v -0.548434 0.362470 -0.998118
v -0.326112 0.356970 -0.995625
v -0.332926 0.173369 1.718681
v -0.642490 0.268791 -0.995625
v -0.485240 0.312880 -0.995625
v -0.244002 0.165700 -0.556285
v -0.462699 0.291068 -0.589413
v -0.265328 0.200680 -0.839112
v -0.476274 0.306456 -0.849270
vn 0.0239 0.9974 0.0675
vn 0.2679 -0.9613 -0.0644
vn -0.7004 0.7060 0.1047
vn 0.0103 -0.0371 -0.9993
vn -0.4880 -0.8700 -0.0708
vn -0.4469 -0.8941 -0.0296
s off
f 104//27 106//27 105//27
f 105//28 106//28 107//28 108//28
f 107//29 106//29 104//29
f 104//30 105//30 108//30 107//30
f 110//31 111//31 109//31
f 110//32 112//32 111//32
l 106 108
