# Blender v2.78 (sub 0) OBJ File: 'polyNave5.blend'
# www.blender.org
o cabina_Cube.001
v -3.495861 -0.011212 -5.940000
v -3.495861 1.313227 -5.940000
v -1.710139 -0.011211 5.940000
v -1.710140 2.637666 -5.940000
v -2.603000 1.975447 -5.940000
v -1.773915 0.130693 5.091429
v -1.837691 0.272597 4.242857
v -1.901466 0.414501 3.394286
v -1.965242 0.556405 2.545715
v -2.029018 0.698309 1.697143
v -2.092794 0.840214 0.848572
v -2.156569 0.982118 0.000000
v -2.220345 1.124022 -0.848571
v -2.284121 1.265926 -1.697143
v -2.347897 1.407830 -2.545714
v -2.411673 1.549734 -3.394285
v -2.475449 1.691638 -4.242857
v -2.539224 1.833543 -5.091429
v 3.495861 -0.011212 -5.940000
v 3.495861 1.313227 -5.940000
v 1.710139 -0.011211 5.940000
v 1.710140 2.637666 -5.940000
v 2.603000 1.975447 -5.940000
v 1.773915 0.130693 5.091429
v 1.837691 0.272597 4.242857
v 1.901466 0.414501 3.394286
v 1.965242 0.556405 2.545715
v 2.029018 0.698309 1.697143
v 2.092794 0.840214 0.848572
v 2.156569 0.982118 0.000000
v 2.220345 1.124022 -0.848571
v 2.284121 1.265926 -1.697143
v 2.347897 1.407830 -2.545714
v 2.411673 1.549734 -3.394285
v 2.475449 1.691638 -4.242857
v 2.539224 1.833543 -5.091429
v -3.495861 0.011212 -5.940000
v -3.495861 -1.313227 -5.940000
v -1.710139 0.011211 5.940000
v -1.710140 -2.637666 -5.940000
v -2.603000 -1.975447 -5.940000
v -1.773915 -0.130693 5.091429
v -1.837691 -0.272597 4.242857
v -1.901466 -0.414501 3.394286
v -1.965242 -0.556405 2.545715
v -2.029018 -0.698309 1.697143
v -2.092794 -0.840214 0.848572
v -2.156569 -0.982118 0.000000
v -2.220345 -1.124022 -0.848571
v -2.284121 -1.265926 -1.697143
v -2.347897 -1.407830 -2.545714
v -2.411673 -1.549734 -3.394285
v -2.475449 -1.691638 -4.242857
v -2.539224 -1.833543 -5.091429
v 3.495861 0.011212 -5.940000
v 3.495861 -1.313227 -5.940000
v 1.710139 0.011211 5.940000
v 1.710140 -2.637666 -5.940000
v 2.603000 -1.975447 -5.940000
v 1.773915 -0.130693 5.091429
v 1.837691 -0.272597 4.242857
v 1.901466 -0.414501 3.394286
v 1.965242 -0.556405 2.545715
v 2.029018 -0.698309 1.697143
v 2.092794 -0.840214 0.848572
v 2.156569 -0.982118 0.000000
v 2.220345 -1.124022 -0.848571
v 2.284121 -1.265926 -1.697143
v 2.347897 -1.407830 -2.545714
v 2.411673 -1.549734 -3.394285
v 2.475449 -1.691638 -4.242857
v 2.539224 -1.833543 -5.091429
vn -0.5864 0.7906 0.1763
vn -0.9889 0.0000 0.1486
vn 0.5864 0.7906 0.1763
vn 0.9889 0.0000 0.1486
vn -0.5864 -0.7906 0.1763
vn 0.5864 -0.7906 0.1763
vn 0.0000 0.9760 0.2176
vn 0.0000 -0.9760 0.2176
s off
f 4//1 5//1 2//1 3//1
f 1//2 3//2 2//2
f 22//3 21//3 20//3 23//3
f 19//4 20//4 21//4
f 40//5 39//5 38//5 41//5
f 37//2 38//2 39//2
f 58//6 59//6 56//6 57//6
f 55//4 57//4 56//4
f 3//7 21//7 22//7 4//7
f 39//8 40//8 58//8 57//8
l 18 5
l 3 6
l 6 7
l 7 8
l 8 9
l 9 10
l 10 11
l 11 12
l 12 13
l 13 14
l 14 15
l 15 16
l 16 17
l 17 18
l 36 23
l 21 24
l 24 25
l 25 26
l 26 27
l 27 28
l 28 29
l 29 30
l 30 31
l 31 32
l 32 33
l 33 34
l 34 35
l 35 36
l 54 41
l 39 42
l 42 43
l 43 44
l 44 45
l 45 46
l 46 47
l 47 48
l 48 49
l 49 50
l 50 51
l 51 52
l 52 53
l 53 54
l 72 59
l 57 60
l 60 61
l 61 62
l 62 63
l 63 64
l 64 65
l 65 66
l 66 67
l 67 68
l 68 69
l 69 70
l 70 71
l 71 72
o ala_4_D_R_Plane.004
v -6.360653 -2.643638 -5.914015
v -5.429497 -3.571062 -5.928820
v -3.228508 -3.516604 -5.914015
v -3.295964 -1.698959 10.208963
v -6.360653 -2.643638 -5.914015
v -4.803871 -3.080122 -5.914015
v -2.415617 -1.623032 -3.304332
v -4.580719 -2.864180 -3.501114
v -2.626751 -1.969341 -4.984324
v -4.715114 -3.016520 -5.044666
vn 0.0238 -0.9934 0.1121
vn 0.2669 0.9578 -0.1070
vn -0.6937 -0.6992 0.1728
vn 0.0062 0.0222 -0.9997
vn -0.4858 0.8661 -0.1175
vn -0.4466 0.8934 -0.0493
s off
f 74//9 75//9 76//9
f 75//10 78//10 77//10 76//10
f 77//11 74//11 76//11
f 74//12 77//12 78//12 75//12
f 80//13 79//13 81//13
f 80//14 81//14 82//14
l 76 78
o ala_3_D_L_Plane.005
v 6.310440 -2.609959 -5.914015
v 5.397863 -3.537382 -5.928820
v 3.196875 -3.482925 -5.914015
v 3.264330 -1.665280 10.208963
v 6.347599 -2.609959 -5.914015
v 4.772237 -3.046442 -5.914015
v 2.383983 -1.589352 -3.304332
v 4.549085 -2.830501 -3.501114
v 2.595118 -1.935661 -4.984324
v 4.683480 -2.982841 -5.044666
vn -0.0238 -0.9934 0.1121
vn -0.2655 0.9582 -0.1069
vn 0.6868 -0.7061 0.1727
vn -0.0062 0.0223 -0.9997
vn 0.4858 0.8661 -0.1175
vn 0.4466 0.8934 -0.0493
s off
f 84//15 86//15 85//15
f 85//16 86//16 87//16 88//16
f 87//17 86//17 84//17
f 84//18 85//18 88//18 87//18
f 90//19 91//19 89//19
f 90//20 92//20 91//20
l 86 88
o ala_2_U_L_Plane.001
v 6.310440 2.661032 -5.914015
v 5.397863 3.588455 -5.928820
v 3.196875 3.533998 -5.914015
v 3.264330 1.716353 10.208963
v 6.347599 2.661032 -5.914015
v 4.772237 3.097515 -5.914015
v 2.383983 1.640426 -3.304332
v 4.549085 2.881574 -3.501114
v 2.595118 1.986734 -4.984324
v 4.683480 3.033914 -5.044666
vn -0.0238 0.9934 0.1121
vn -0.2655 -0.9582 -0.1069
vn 0.6868 0.7061 0.1727
vn -0.0062 -0.0223 -0.9997
vn 0.4858 -0.8661 -0.1175
vn 0.4466 -0.8934 -0.0493
s off
f 94//21 95//21 96//21
f 95//22 98//22 97//22 96//22
f 97//23 94//23 96//23
f 94//24 97//24 98//24 95//24
f 100//25 99//25 101//25
f 100//26 101//26 102//26
l 96 98
o ala_1_U_R_Plane.003
v -6.360653 2.661032 -5.914015
v -5.429497 3.588455 -5.928820
v -3.228508 3.533998 -5.914015
v -3.295964 1.716353 10.208963
v -6.360653 2.661032 -5.914015
v -4.803871 3.097515 -5.914015
v -2.415617 1.640426 -3.304332
v -4.580719 2.881574 -3.501114
v -2.626751 1.986734 -4.984324
v -4.715114 3.033914 -5.044666
vn 0.0238 0.9934 0.1121
vn 0.2669 -0.9578 -0.1070
vn -0.6937 0.6992 0.1728
vn 0.0062 -0.0222 -0.9997
vn -0.4858 -0.8661 -0.1175
vn -0.4466 -0.8934 -0.0493
s off
f 104//27 106//27 105//27
f 105//28 106//28 107//28 108//28
f 107//29 106//29 104//29
f 104//30 105//30 108//30 107//30
f 110//31 111//31 109//31
f 110//32 112//32 111//32
l 106 108
