# Blender v2.78 (sub 0) OBJ File: ''
# www.blender.org
mtllib polyNave7wire.mtl
o ala_2_U_L_Plane.000
v 5.290638 3.579115 -5.868828
v 3.296091 3.529766 -5.855412
v 3.279659 3.520297 -5.882497
v 5.368164 3.515823 -5.892604
v 5.427563 3.661089 -5.965034
v 3.114090 3.547701 -5.945532
v 3.357222 1.882605 8.755306
v 3.270593 1.721961 10.149778
v 3.258067 1.710740 10.268148
v 3.292548 3.500877 -5.854738
v 4.770535 3.091374 -5.854738
v 4.790682 3.164097 -5.871473
v 4.753792 3.030935 -5.956555
v 6.240372 2.684128 -5.854738
v 6.271528 2.699930 -5.884009
v 6.423670 2.622136 -5.944021
v 3.355660 1.800281 9.229953
v 6.265441 2.726781 -5.856099
v 5.460876 3.512445 -5.868639
v 3.653458 1.926500 7.802428
v 5.358582 3.488521 -5.926350
v 6.003112 2.859133 -5.916303
v 4.798651 3.192851 -5.916303
v 3.864899 3.451564 -5.916303
v 4.376481 2.790777 -3.545504
v 2.479652 1.703418 -3.373104
v 2.335675 1.726553 -3.300126
v 4.502556 2.968803 -3.497992
v 4.595613 2.794345 -3.504236
v 2.432291 1.554300 -3.308537
v 2.664626 2.006816 -4.844932
v 2.548891 2.074139 -4.981382
v 2.641344 1.899331 -4.987264
v 4.473070 2.851675 -3.647846
v 2.783574 2.077953 -4.930302
v 4.589275 2.983396 -4.982477
v 4.639239 3.122428 -5.042909
v 4.727722 2.945402 -5.046422
v -1.736760 2.605437 -5.883996
v -2.594582 1.969204 -5.883996
v -2.579191 1.957789 -5.959798
v -1.698861 2.615188 -5.965203
v -1.721418 2.660147 -5.914795
v -2.626809 1.993107 -5.920200
v -3.462189 1.325715 -5.883997
v -3.464906 1.302955 -5.958630
v -3.526815 1.323502 -5.921370
v -1.736759 0.045992 5.594895
v -1.701726 -0.033905 5.912743
v -1.718553 0.011480 5.967257
v -3.487199 0.015278 -5.882373
v -1.782604 0.015276 5.457911
v -3.461213 -0.011211 -5.954406
v -3.530508 -0.011211 -5.925594
v -3.487199 1.279547 -5.882373
v 1.736760 2.605437 -5.883996
v 1.736759 0.045992 5.594895
v 1.701726 -0.033905 5.912743
v 1.698861 2.615188 -5.965203
v 1.721418 2.660147 -5.914795
v 1.718553 0.011480 5.967257
v 3.462189 1.325715 -5.883997
v 3.464906 1.302955 -5.958630
v 3.526815 1.323502 -5.921370
v 2.594582 1.969204 -5.883996
v 2.579191 1.957789 -5.959798
v 2.626809 1.993107 -5.920200
v 3.487199 0.015278 -5.882373
v 3.487199 1.279547 -5.882373
v 3.461213 -0.011211 -5.954406
v 3.530508 -0.011211 -5.925594
v 1.782604 0.015276 5.457911
v -1.736760 -2.605435 -5.883997
v -1.736759 -0.045994 5.594895
v -1.701726 0.033903 5.912743
v -1.698861 -2.615186 -5.965204
v -1.721418 -2.660145 -5.914796
v -1.718553 -0.011482 5.967257
v -3.462189 -1.325713 -5.883997
v -3.464906 -1.302953 -5.958630
v -3.526815 -1.323500 -5.921370
v -2.594582 -1.969202 -5.883997
v -2.579191 -1.957787 -5.959799
v -2.626809 -1.993105 -5.920201
v -3.487199 -0.015276 -5.882373
v -3.487199 -1.279545 -5.882373
v -3.461213 0.011213 -5.954406
v -3.530508 0.011213 -5.925594
v -1.782604 -0.015278 5.457911
v 1.736760 -2.605435 -5.883997
v 2.594582 -1.969202 -5.883997
v 2.579191 -1.957787 -5.959799
v 1.698861 -2.615186 -5.965204
v 1.721418 -2.660145 -5.914796
v 2.626809 -1.993105 -5.920201
v 3.462189 -1.325713 -5.883997
v 3.464906 -1.302953 -5.958630
v 3.526815 -1.323500 -5.921370
v 1.736759 -0.045994 5.594895
v 1.701726 0.033903 5.912743
v 1.718553 -0.011482 5.967257
v 3.487199 -0.015276 -5.882373
v 1.782604 -0.015278 5.457911
v 3.461213 0.011213 -5.954406
v 3.530508 0.011213 -5.925594
v 3.487199 -1.279545 -5.882373
v -1.674425 0.000634 5.886871
v 1.674425 0.000634 5.886871
v 1.674425 2.625821 -5.886870
v -1.674425 2.625821 -5.886870
v -1.674425 -0.000636 5.886871
v -1.674425 -2.625819 -5.886871
v 1.674425 -2.625819 -5.886871
v 1.674425 -0.000636 5.886871
v -5.322272 -3.561720 -5.868829
v -3.327725 -3.512371 -5.855413
v -3.311395 -3.502832 -5.882606
v -5.399408 -3.498512 -5.892661
v -5.459587 -3.643609 -5.964981
v -3.145621 -3.530375 -5.945426
v -3.388855 -1.865214 8.755306
v -3.302224 -1.704578 10.149778
v -3.289704 -1.693344 10.268148
v -3.324182 -3.483481 -5.854739
v -4.777290 -2.984755 -5.914015
v -4.822419 -3.146668 -5.871470
v -4.785323 -3.013573 -5.956561
v -6.253585 -2.667025 -5.854740
v -6.284772 -2.682993 -5.884054
v -6.436534 -2.604282 -5.943977
v -3.387231 -1.783349 9.224599
v -6.279255 -2.710077 -5.856110
v -5.491823 -3.494352 -5.868629
v -3.687600 -1.911215 7.778275
v -5.389638 -3.471111 -5.926359
v -6.021938 -2.841346 -5.916298
v -4.830451 -3.175486 -5.914015
v -3.896533 -3.434169 -5.916304
v -4.408114 -2.773384 -3.545505
v -2.511286 -1.686023 -3.373104
v -2.367309 -1.709157 -3.300126
v -4.534190 -2.951409 -3.497993
v -4.627247 -2.776951 -3.504236
v -2.463924 -1.536905 -3.308537
v -2.696259 -1.989421 -4.844933
v -2.580525 -2.056744 -4.981383
v -2.672978 -1.881935 -4.987265
v -4.504704 -2.834280 -3.647846
v -2.815208 -2.060557 -4.930303
v -4.620909 -2.966000 -4.982478
v -4.670873 -3.105032 -5.042910
v -4.759356 -2.928006 -5.046422
v 5.290638 -3.528040 -5.868829
v 3.357222 -1.831534 8.755306
v 3.270593 -1.670892 10.149778
v 5.368164 -3.464748 -5.892605
v 5.427563 -3.610014 -5.965034
v 3.258067 -1.659671 10.268148
v 3.296091 -3.478691 -5.855413
v 3.279659 -3.469222 -5.882498
v 3.114090 -3.496626 -5.945533
v 3.292548 -3.449802 -5.854739
v 3.355660 -1.749212 9.229953
v 6.240372 -2.633053 -5.854739
v 6.271528 -2.648855 -5.884010
v 6.423670 -2.571061 -5.944022
v 4.770535 -3.040299 -5.854739
v 4.790682 -3.113022 -5.871474
v 4.753792 -2.979860 -5.956556
v 6.265441 -2.675706 -5.856100
v 3.653458 -1.875428 7.802427
v 5.460876 -3.461369 -5.868640
v 5.358582 -3.437446 -5.926351
v 3.864899 -3.400489 -5.916304
v 4.798651 -3.141776 -5.916304
v 6.003112 -2.808058 -5.916304
v 4.376481 -2.739703 -3.545505
v 2.664626 -1.955741 -4.844933
v 2.548891 -2.023064 -4.981383
v 4.502556 -2.917730 -3.497993
v 4.595613 -2.743272 -3.504236
v 2.641344 -1.848256 -4.987265
v 2.479652 -1.652343 -3.373104
v 2.335675 -1.675478 -3.300126
v 2.432291 -1.503225 -3.308537
v 4.473070 -2.800601 -3.647846
v 4.589275 -2.932321 -4.982478
v 4.639239 -3.071352 -5.042910
v 4.727722 -2.894327 -5.046422
v 2.783574 -2.026878 -4.930303
v -5.322272 3.579115 -5.868828
v -3.388855 1.882605 8.755306
v -3.302224 1.721967 10.149778
v -5.399408 3.515908 -5.892660
v -5.459587 3.661005 -5.964980
v -3.289704 1.710734 10.268148
v -3.327725 3.529766 -5.855412
v -3.311395 3.520228 -5.882605
v -3.145621 3.547770 -5.945426
v -3.324182 3.500877 -5.854738
v -3.387231 1.800739 9.224599
v -6.253585 2.684420 -5.854739
v -6.284772 2.700389 -5.884053
v -6.436534 2.621677 -5.943976
v -4.777290 3.002151 -5.914014
v -4.822419 3.164064 -5.871469
v -4.785323 3.030968 -5.956560
v -6.279255 2.727473 -5.856109
v -3.687600 1.928606 7.778275
v -5.491823 3.511748 -5.868629
v -5.389638 3.488506 -5.926358
v -3.896533 3.451564 -5.916303
v -4.830451 3.192881 -5.914014
v -6.021938 2.858742 -5.916297
v -4.408114 2.790777 -3.545504
v -2.696259 2.006816 -4.844932
v -2.580525 2.074139 -4.981382
v -4.534190 2.968803 -3.497992
v -4.627247 2.794345 -3.504236
v -2.672978 1.899331 -4.987264
v -2.511286 1.703418 -3.373104
v -2.367309 1.726553 -3.300126
v -2.463924 1.554300 -3.308537
v -4.504704 2.851675 -3.647846
v -4.620909 2.983396 -4.982477
v -4.670873 3.122428 -5.042909
v -4.759356 2.945402 -5.046422
v -2.815208 2.077953 -4.930302
vn 0.0110 -0.5667 0.8239
vn -0.0295 0.8779 0.4779
vn 0.1525 -0.9821 -0.1107
vn 0.0235 0.9934 0.1121
vn -0.3647 -0.9185 -0.1525
vn -0.3236 0.9437 0.0685
vn 0.1057 0.4256 0.8987
vn -0.2673 -0.9036 0.3347
vn 0.1223 0.4010 0.9079
vn -0.2350 -0.8985 0.3708
vn 0.0802 0.9940 0.0746
vn -0.3370 -0.9340 -0.1187
vn 0.3822 0.9184 0.1026
vn -0.2210 -0.9693 -0.1081
vn -0.3876 -0.4024 0.8293
vn -0.3879 -0.4029 0.8290
vn -0.3887 -0.4052 0.8275
vn 0.5924 0.5947 0.5435
vn -0.3437 -0.9269 -0.1506
vn 0.8695 0.4636 0.1705
vn -0.8172 -0.5451 -0.1871
vn 0.6284 0.7602 0.1651
vn -0.3891 -0.4060 0.8269
vn -0.1544 -0.1699 -0.9733
vn 0.1729 0.5694 0.8037
vn 0.0639 0.2279 -0.9716
vn 0.0622 0.2243 -0.9725
vn 0.1450 0.5908 0.7937
vn 0.0656 0.2315 -0.9706
vn 0.0096 -0.5361 0.8441
vn 0.0020 -0.2404 -0.9707
vn -0.3390 0.4610 -0.8201
vn 0.1716 -0.4388 -0.8820
vn 0.2703 0.9356 0.2273
vn 0.9574 -0.2822 0.0616
vn -0.6586 0.2808 0.6981
vn -0.1026 -0.7861 0.6095
vn 0.1233 0.7695 -0.6266
vn 0.6606 -0.3068 -0.6852
vn -0.1989 0.4474 0.8719
vn 0.2617 -0.4739 0.8408
vn -0.9485 0.3124 -0.0523
vn -0.3083 -0.9438 -0.1194
vn 0.5846 -0.7846 0.2067
vn -0.4029 0.5420 0.7375
vn 0.5797 -0.7827 0.2266
vn -0.4173 0.5612 0.7148
vn 0.9868 -0.0526 -0.1533
vn 0.0044 0.9940 0.1096
vn -0.2264 -0.9507 -0.2120
vn -0.9420 0.3276 0.0731
vn 0.8281 0.5469 -0.1231
vn -0.5236 0.8484 0.0784
vn 0.3324 -0.9305 -0.1539
vn -0.8892 -0.4497 0.0846
vn 0.9509 0.0019 0.3095
vn -0.7041 -0.0002 0.7101
vn 0.2264 -0.9507 -0.2120
vn 0.9420 0.3276 0.0731
vn -0.9868 -0.0526 -0.1533
vn -0.0044 0.9940 0.1096
vn -0.5797 -0.7827 0.2266
vn 0.4173 0.5612 0.7148
vn -0.5846 -0.7846 0.2067
vn 0.4029 0.5420 0.7375
vn -0.9509 0.0019 0.3095
vn 0.7041 -0.0002 0.7101
vn -0.3324 -0.9305 -0.1539
vn 0.8892 -0.4497 0.0846
vn -0.8281 0.5469 -0.1231
vn 0.5236 0.8484 0.0784
vn -0.2264 0.9507 -0.2120
vn -0.9420 -0.3276 0.0731
vn 0.9868 0.0526 -0.1533
vn 0.0044 -0.9940 0.1096
vn 0.5797 0.7827 0.2266
vn -0.4173 -0.5612 0.7148
vn 0.5846 0.7846 0.2067
vn -0.4029 -0.5420 0.7375
vn 0.9509 -0.0019 0.3095
vn -0.7041 0.0002 0.7101
vn 0.3324 0.9305 -0.1539
vn -0.8892 0.4497 0.0846
vn 0.8281 -0.5469 -0.1231
vn -0.5236 -0.8484 0.0784
vn -0.5846 0.7846 0.2067
vn 0.4029 -0.5420 0.7375
vn -0.5797 0.7827 0.2266
vn 0.4173 -0.5612 0.7148
vn -0.9868 0.0526 -0.1533
vn -0.0044 -0.9940 0.1096
vn 0.2264 0.9507 -0.2120
vn 0.9420 -0.3276 0.0731
vn -0.8281 -0.5469 -0.1231
vn 0.5236 -0.8484 0.0784
vn -0.3324 0.9305 -0.1539
vn 0.8892 0.4497 0.0846
vn -0.9509 -0.0019 0.3095
vn 0.7041 0.0002 0.7101
vn 0.0000 -0.5995 -0.8004
vn 0.0000 0.9910 -0.1337
vn -0.7315 -0.6655 -0.1483
vn -0.5202 0.8336 0.1858
vn 0.0000 -0.9909 0.1345
vn 0.0000 0.6311 0.7757
vn 0.7315 -0.6655 -0.1483
vn 0.5202 0.8336 0.1858
vn 0.7315 0.6655 -0.1483
vn 0.5202 -0.8336 0.1858
vn 0.0000 0.9909 0.1345
vn 0.0000 -0.6311 0.7757
vn -0.7315 0.6655 -0.1483
vn -0.5202 -0.8336 0.1858
vn 0.0000 0.5995 -0.8004
vn 0.0000 -0.9910 -0.1337
vn -0.0110 0.5680 0.8229
vn 0.0295 -0.8778 0.4781
vn -0.1534 0.9820 -0.1107
vn -0.0238 -0.9934 0.1121
vn 0.3651 0.9184 -0.1525
vn 0.3648 0.9186 -0.1519
vn 0.3536 0.9231 -0.1514
vn 0.3227 -0.9440 0.0687
vn 0.0067 0.0795 0.9968
vn 0.3119 0.9404 -0.1353
vn 0.0319 0.0605 0.9977
vn 0.2242 0.9717 -0.0747
vn -0.0797 -0.9940 0.0745
vn 0.3401 0.9328 -0.1189
vn -0.3832 -0.9179 0.1026
vn 0.2217 0.9691 -0.1081
vn 0.3912 0.3981 0.8297
vn 0.3915 0.3987 0.8293
vn 0.3927 0.4013 0.8275
vn -0.5978 -0.5884 0.5445
vn 0.3521 0.9237 -0.1513
vn -0.8738 -0.4555 0.1701
vn 0.8245 0.5341 -0.1869
vn -0.6348 -0.7548 0.1653
vn 0.3932 0.4022 0.8268
vn 0.1556 0.1681 -0.9734
vn -0.1726 -0.5590 0.8110
vn -0.0657 -0.2329 -0.9703
vn -0.0636 -0.2299 -0.9711
vn -0.1420 -0.5822 0.8006
vn -0.0678 -0.2360 -0.9694
vn -0.0096 0.5351 0.8448
vn -0.0019 0.2399 -0.9708
vn 0.3390 -0.4610 -0.8201
vn -0.1716 0.4388 -0.8820
vn -0.2703 -0.9356 0.2273
vn -0.9574 0.2822 0.0616
vn 0.6586 -0.2808 0.6981
vn 0.1026 0.7861 0.6095
vn -0.1233 -0.7695 -0.6266
vn -0.6606 0.3068 -0.6852
vn 0.1989 -0.4474 0.8719
vn -0.2617 0.4739 0.8408
vn 0.9485 -0.3124 -0.0523
vn 0.3083 0.9438 -0.1194
vn -0.3647 0.9185 -0.1525
vn -0.3236 -0.9437 0.0685
vn 0.1525 0.9821 -0.1107
vn 0.0235 -0.9934 0.1121
vn 0.0110 0.5667 0.8239
vn -0.0295 -0.8779 0.4779
vn 0.3822 -0.9184 0.1026
vn -0.2210 0.9693 -0.1081
vn 0.0802 -0.9940 0.0746
vn -0.3370 0.9340 -0.1187
vn 0.1223 -0.4010 0.9079
vn -0.2350 0.8985 0.3708
vn 0.1057 -0.4256 0.8987
vn -0.2673 0.9036 0.3347
vn -0.8172 0.5451 -0.1871
vn 0.6284 -0.7602 0.1651
vn -0.3437 0.9269 -0.1506
vn 0.8695 -0.4636 0.1705
vn -0.3876 0.4024 0.8293
vn -0.3888 0.4052 0.8275
vn -0.3879 0.4029 0.8290
vn 0.5924 -0.5947 0.5435
vn 0.0096 0.5361 0.8441
vn 0.0020 0.2404 -0.9707
vn 0.1450 -0.5908 0.7937
vn 0.0639 -0.2279 -0.9716
vn 0.0656 -0.2315 -0.9706
vn 0.1729 -0.5694 0.8037
vn 0.0622 -0.2243 -0.9725
vn -0.3891 0.4060 0.8269
vn -0.1544 0.1699 -0.9733
vn -0.6586 -0.2808 0.6981
vn -0.1026 0.7861 0.6095
vn 0.2703 -0.9356 0.2273
vn 0.9574 0.2822 0.0616
vn -0.3390 -0.4610 -0.8201
vn 0.1716 0.4388 -0.8820
vn -0.9485 -0.3124 -0.0523
vn -0.3083 0.9438 -0.1194
vn -0.1989 -0.4474 0.8719
vn 0.2617 0.4739 0.8408
vn 0.1233 -0.7695 -0.6266
vn 0.6606 0.3068 -0.6852
vn 0.3651 -0.9184 -0.1525
vn 0.3536 -0.9231 -0.1514
vn 0.3648 -0.9186 -0.1519
vn 0.3227 0.9440 0.0687
vn -0.1534 -0.9820 -0.1107
vn -0.0238 0.9934 0.1121
vn -0.0110 -0.5680 0.8229
vn 0.0295 0.8778 0.4781
vn -0.3832 0.9179 0.1026
vn 0.2217 -0.9691 -0.1081
vn -0.0797 0.9940 0.0745
vn 0.3401 -0.9328 -0.1189
vn 0.0319 -0.0605 0.9977
vn 0.2242 -0.9717 -0.0747
vn 0.0067 -0.0795 0.9968
vn 0.3119 -0.9405 -0.1352
vn 0.8245 -0.5341 -0.1869
vn -0.6348 0.7548 0.1653
vn 0.3521 -0.9237 -0.1513
vn -0.8738 0.4555 0.1701
vn 0.3912 -0.3981 0.8297
vn 0.3927 -0.4013 0.8275
vn 0.3915 -0.3987 0.8293
vn -0.5978 0.5884 0.5445
vn -0.0096 -0.5350 0.8448
vn -0.0019 -0.2399 -0.9708
vn -0.1420 0.5822 0.8006
vn -0.0657 0.2329 -0.9703
vn -0.0678 0.2360 -0.9694
vn -0.1726 0.5590 0.8110
vn -0.0636 0.2299 -0.9711
vn 0.3932 -0.4022 0.8268
vn 0.1556 -0.1681 -0.9734
vn 0.6586 0.2808 0.6981
vn 0.1026 -0.7861 0.6095
vn -0.2703 0.9356 0.2273
vn -0.9574 -0.2822 0.0616
vn 0.3390 0.4610 -0.8201
vn -0.1716 -0.4388 -0.8820
vn 0.9485 0.3124 -0.0523
vn 0.3083 -0.9438 -0.1194
vn 0.1989 0.4474 0.8719
vn -0.2617 -0.4739 0.8408
vn -0.1233 0.7695 -0.6266
vn -0.6606 -0.3068 -0.6852
usemtl None.002
s 1
f 1//1 2//1 3//1 4//1
f 2//2 1//2 5//2 6//2
f 2//3 7//3 8//3 3//3
f 7//4 2//4 6//4 9//4
f 7//5 1//5 4//5 8//5
f 1//6 7//6 9//6 5//6
f 10//7 11//7 12//7 3//7
f 11//8 10//8 6//8 13//8
f 11//9 14//9 15//9 12//9
f 14//10 11//10 13//10 16//10
f 14//11 17//11 8//11 15//11
f 17//12 14//12 16//12 9//12
f 17//13 10//13 3//13 8//13
f 10//14 17//14 9//14 6//14
f 18//15 19//15 4//16 15//17
f 19//18 18//18 16//18 5//18
f 19//19 20//19 8//19 4//19
f 20//20 19//20 5//20 9//20
f 20//21 18//21 15//21 8//21
f 18//22 20//22 9//22 16//22
f 21//23 22//23 15//17 4//16
f 22//24 21//24 5//24 16//24
f 22//25 23//25 12//25 15//25
f 23//26 22//27 16//27 13//26
f 23//28 24//28 3//28 12//28
f 24//29 23//26 13//26 6//29
f 24//30 21//30 4//30 3//30
f 21//31 24//31 6//31 5//31
f 25//32 26//32 27//32 28//32
f 26//33 25//33 29//33 30//33
f 26//34 31//34 32//34 27//34
f 31//35 26//35 30//35 33//35
f 31//36 25//36 28//36 32//36
f 25//37 31//37 33//37 29//37
f 34//38 35//38 32//38 28//38
f 35//39 34//39 29//39 33//39
f 35//40 36//40 37//40 32//40
f 36//41 35//41 33//41 38//41
f 36//42 34//42 28//42 37//42
f 34//43 36//43 38//43 29//43
f 39//44 40//44 41//44 42//44
f 40//45 39//45 43//45 44//45
f 40//46 45//46 46//46 41//46
f 45//47 40//47 44//47 47//47
f 45//48 48//48 49//48 46//48
f 48//49 45//49 47//49 50//49
f 48//50 39//50 42//50 49//50
f 39//51 48//51 50//51 43//51
f 51//52 52//52 49//52 53//52
f 52//53 51//53 54//53 50//53
f 52//54 55//54 46//54 49//54
f 55//55 52//55 50//55 47//55
f 55//56 51//56 53//56 46//56
f 51//57 55//57 47//57 54//57
f 56//58 57//58 58//58 59//58
f 57//59 56//59 60//59 61//59
f 57//60 62//60 63//60 58//60
f 62//61 57//61 61//61 64//61
f 62//62 65//62 66//62 63//62
f 65//63 62//63 64//63 67//63
f 65//64 56//64 59//64 66//64
f 56//65 65//65 67//65 60//65
f 68//66 69//66 63//66 70//66
f 69//67 68//67 71//67 64//67
f 69//68 72//68 58//68 63//68
f 72//69 69//69 64//69 61//69
f 72//70 68//70 70//70 58//70
f 68//71 72//71 61//71 71//71
f 73//72 74//72 75//72 76//72
f 74//73 73//73 77//73 78//73
f 74//74 79//74 80//74 75//74
f 79//75 74//75 78//75 81//75
f 79//76 82//76 83//76 80//76
f 82//77 79//77 81//77 84//77
f 82//78 73//78 76//78 83//78
f 73//79 82//79 84//79 77//79
f 85//80 86//80 80//80 87//80
f 86//81 85//81 88//81 81//81
f 86//82 89//82 75//82 80//82
f 89//83 86//83 81//83 78//83
f 89//84 85//84 87//84 75//84
f 85//85 89//85 78//85 88//85
f 90//86 91//86 92//86 93//86
f 91//87 90//87 94//87 95//87
f 91//88 96//88 97//88 92//88
f 96//89 91//89 95//89 98//89
f 96//90 99//90 100//90 97//90
f 99//91 96//91 98//91 101//91
f 99//92 90//92 93//92 100//92
f 90//93 99//93 101//93 94//93
f 102//94 103//94 100//94 104//94
f 103//95 102//95 105//95 101//95
f 103//96 106//96 97//96 100//96
f 106//97 103//97 101//97 98//97
f 106//98 102//98 104//98 97//98
f 102//99 106//99 98//99 105//99
f 107//100 108//100 58//100 49//100
f 108//101 107//101 50//101 61//101
f 108//102 109//102 59//102 58//102
f 109//103 108//103 61//103 60//103
f 109//104 110//104 42//104 59//104
f 110//105 109//105 60//105 43//105
f 110//106 107//106 49//106 42//106
f 107//107 110//107 43//107 50//107
f 111//108 112//108 76//108 75//108
f 112//109 111//109 78//109 77//109
f 112//110 113//110 93//110 76//110
f 113//111 112//111 77//111 94//111
f 113//112 114//112 100//112 93//112
f 114//113 113//113 94//113 101//113
f 114//114 111//114 75//114 100//114
f 111//115 114//115 101//115 78//115
f 115//116 116//116 117//116 118//116
f 116//117 115//117 119//117 120//117
f 116//118 121//118 122//118 117//118
f 121//119 116//119 120//119 123//119
f 121//120 115//120 118//121 122//122
f 115//123 121//123 123//123 119//123
f 124//124 125//124 126//124 117//124
f 125//125 124//125 120//125 127//125
f 125//126 128//126 129//126 126//126
f 128//127 125//127 127//127 130//127
f 128//128 131//128 122//128 129//128
f 131//129 128//129 130//129 123//129
f 131//130 124//130 117//130 122//130
f 124//131 131//131 123//131 120//131
f 132//132 133//132 118//133 129//134
f 133//135 132//135 130//135 119//135
f 133//136 134//136 122//122 118//121
f 134//137 133//137 119//137 123//137
f 134//138 132//138 129//138 122//138
f 132//139 134//139 123//139 130//139
f 135//140 136//140 129//134 118//133
f 136//141 135//141 119//141 130//141
f 136//142 137//142 126//142 129//142
f 137//143 136//144 130//144 127//143
f 137//145 138//145 117//145 126//145
f 138//146 137//143 127//143 120//146
f 138//147 135//147 118//147 117//147
f 135//148 138//148 120//148 119//148
f 139//149 140//149 141//149 142//149
f 140//150 139//150 143//150 144//150
f 140//151 145//151 146//151 141//151
f 145//152 140//152 144//152 147//152
f 145//153 139//153 142//153 146//153
f 139//154 145//154 147//154 143//154
f 148//155 149//155 146//155 142//155
f 149//156 148//156 143//156 147//156
f 149//157 150//157 151//157 146//157
f 150//158 149//158 147//158 152//158
f 150//159 148//159 142//159 151//159
f 148//160 150//160 152//160 143//160
f 153//161 154//161 155//161 156//161
f 154//162 153//162 157//162 158//162
f 154//163 159//163 160//163 155//163
f 159//164 154//164 158//164 161//164
f 159//165 153//165 156//165 160//165
f 153//166 159//166 161//166 157//166
f 162//167 163//167 155//167 160//167
f 163//168 162//168 161//168 158//168
f 163//169 164//169 165//169 155//169
f 164//170 163//170 158//170 166//170
f 164//171 167//171 168//171 165//171
f 167//172 164//172 166//172 169//172
f 167//173 162//173 160//173 168//173
f 162//174 167//174 169//174 161//174
f 170//175 171//175 155//175 165//175
f 171//176 170//176 166//176 158//176
f 171//177 172//177 156//177 155//177
f 172//178 171//178 158//178 157//178
f 172//179 170//179 165//180 156//181
f 170//182 172//182 157//182 166//182
f 173//183 174//183 160//183 156//183
f 174//184 173//184 157//184 161//184
f 174//185 175//185 168//185 160//185
f 175//186 174//187 161//187 169//186
f 175//188 176//188 165//188 168//188
f 176//189 175//186 169//186 166//189
f 176//190 173//190 156//181 165//180
f 173//191 176//191 166//191 157//191
f 177//192 178//192 179//192 180//192
f 178//193 177//193 181//193 182//193
f 178//194 183//194 184//194 179//194
f 183//195 178//195 182//195 185//195
f 183//196 177//196 180//196 184//196
f 177//197 183//197 185//197 181//197
f 186//198 187//198 188//198 180//198
f 187//199 186//199 181//199 189//199
f 187//200 190//200 179//200 188//200
f 190//201 187//201 189//201 182//201
f 190//202 186//202 180//202 179//202
f 186//203 190//203 182//203 181//203
f 191//204 192//204 193//205 194//206
f 192//207 191//207 195//207 196//207
f 192//208 197//208 198//208 193//208
f 197//209 192//209 196//209 199//209
f 197//210 191//210 194//210 198//210
f 191//211 197//211 199//211 195//211
f 200//212 201//212 193//212 198//212
f 201//213 200//213 199//213 196//213
f 201//214 202//214 203//214 193//214
f 202//215 201//215 196//215 204//215
f 202//216 205//216 206//216 203//216
f 205//217 202//217 204//217 207//217
f 205//218 200//218 198//218 206//218
f 200//219 205//219 207//219 199//219
f 208//220 209//220 193//220 203//220
f 209//221 208//221 204//221 196//221
f 209//222 210//222 194//206 193//205
f 210//223 209//223 196//223 195//223
f 210//224 208//224 203//225 194//226
f 208//227 210//227 195//227 204//227
f 211//228 212//228 198//228 194//228
f 212//229 211//229 195//229 199//229
f 212//230 213//230 206//230 198//230
f 213//231 212//232 199//232 207//231
f 213//233 214//233 203//233 206//233
f 214//234 213//231 207//231 204//234
f 214//235 211//235 194//226 203//225
f 211//236 214//236 204//236 195//236
f 215//237 216//237 217//237 218//237
f 216//238 215//238 219//238 220//238
f 216//239 221//239 222//239 217//239
f 221//240 216//240 220//240 223//240
f 221//241 215//241 218//241 222//241
f 215//242 221//242 223//242 219//242
f 224//243 225//243 226//243 218//243
f 225//244 224//244 219//244 227//244
f 225//245 228//245 217//245 226//245
f 228//246 225//246 227//246 220//246
f 228//247 224//247 218//247 217//247
f 224//248 228//248 220//248 219//248
