# Blender v2.78 (sub 0) OBJ File: 'acidPill.blend'
# www.blender.org
mtllib powerUp.mtl
o Icosphere_Icosphere.001
v -0.083842 0.092847 -0.003600
v -0.063205 0.104498 -0.003395
v 0.367736 0.302639 -0.006474
v 0.379643 0.283032 -0.000522
v 0.075589 0.309464 -0.466821
v 0.074135 0.289882 -0.453551
v -0.443990 0.298413 -0.272204
v -0.426656 0.287258 -0.260511
v -0.442597 0.284240 0.255671
v -0.428049 0.301431 0.263054
v 0.056341 0.284341 0.415840
v 0.063442 0.304890 0.425274
v -0.083842 -0.059946 -0.003600
v -0.063205 -0.071597 -0.003395
v 0.367736 -0.269739 -0.006474
v 0.379643 -0.250131 -0.000522
v 0.075589 -0.276563 -0.466821
v 0.074135 -0.256981 -0.453551
v -0.443990 -0.265512 -0.272204
v -0.426656 -0.254357 -0.260511
v -0.442597 -0.251340 0.255671
v -0.428049 -0.268530 0.263054
v 0.056341 -0.251440 0.415840
v 0.063442 -0.271989 0.425274
v 0.199187 0.016450 0.835877
v 0.206537 0.016450 0.858408
v -0.804088 0.016450 0.512636
v -0.790158 0.016450 0.531809
v -0.806787 0.016450 -0.536075
v -0.787459 0.016450 -0.522360
v 0.203783 0.016450 -0.865951
v 0.201941 0.016450 -0.842324
v 0.811427 0.016450 -0.010614
v 0.830377 0.016450 0.003619
v 0.803965 0.020078 -0.007616
v 0.221239 0.023644 -0.812824
v 0.385761 0.297466 -0.001487
v 0.094036 0.287257 0.390228
v 0.207188 0.023616 0.825131
v 0.787452 0.023616 0.026483
v 0.072956 0.284779 0.424619
v -0.396289 0.285743 0.281931
v 0.179552 0.036358 0.812292
v 0.050549 0.287349 0.427379
v 0.801219 0.023644 -0.014567
v 0.381547 0.283009 -0.014567
v 0.221239 0.023644 -0.812824
v 0.085919 0.291724 -0.459475
v 0.201311 0.036401 -0.814619
v 0.355311 0.285560 -0.047773
v 0.186516 0.024100 -0.839310
v 0.066645 0.289334 -0.470380
v -0.749957 0.024100 -0.535027
v 0.030585 0.292136 -0.453602
v -0.432009 0.285936 -0.277854
v -0.760059 0.035333 -0.516194
v -0.787706 0.023644 -0.508693
v -0.448187 0.283009 -0.262020
v -0.787706 0.023644 0.477998
v -0.444740 0.285642 -0.222133
v -0.444740 0.285642 0.252521
v -0.771396 0.036104 0.489848
v -0.774693 0.023644 0.519609
v 0.163711 0.023644 0.824520
v -0.435173 0.283009 0.272937
v -0.411534 0.287288 0.256136
v 0.042732 0.288920 0.404001
v -0.079651 0.109180 0.015011
v -0.424882 0.287232 -0.244701
v -0.424882 0.287232 0.237706
v -0.092889 0.109066 -0.003498
v 0.057074 0.293860 -0.442214
v -0.412421 0.287567 -0.263844
v -0.079477 0.108890 -0.021949
v -0.057861 0.108890 -0.014925
v 0.078689 0.293860 -0.435191
v 0.353684 0.287568 -0.014925
v -0.058018 0.109100 0.007857
v 0.352330 0.287258 0.007857
v 0.064399 0.288891 0.396956
v 0.803965 0.012822 -0.007616
v 0.094036 -0.254356 0.390228
v 0.385761 -0.264566 -0.001487
v 0.221239 0.009257 -0.812824
v 0.207188 0.009285 0.825131
v 0.072956 -0.251878 0.424619
v 0.787452 0.009285 0.026483
v -0.396289 -0.252843 0.281931
v 0.050549 -0.254449 0.427379
v 0.179552 -0.003457 0.812292
v 0.801219 0.009257 -0.014567
v 0.221239 0.009257 -0.812824
v 0.381547 -0.250108 -0.014567
v 0.085919 -0.258823 -0.459475
v 0.355311 -0.252659 -0.047773
v 0.201311 -0.003500 -0.814619
v 0.186516 0.008801 -0.839310
v -0.749957 0.008801 -0.535027
v 0.066645 -0.256433 -0.470380
v 0.030585 -0.259235 -0.453602
v -0.760059 -0.002432 -0.516194
v -0.432009 -0.253035 -0.277854
v -0.787706 0.009257 -0.508693
v -0.787706 0.009257 0.477998
v -0.448187 -0.250108 -0.262020
v -0.444740 -0.252741 -0.222133
v -0.771396 -0.003203 0.489848
v -0.444740 -0.252741 0.252521
v -0.774693 0.009257 0.519609
v -0.435173 -0.250108 0.272937
v 0.163711 0.009257 0.824520
v -0.411534 -0.254387 0.256136
v -0.079651 -0.076279 0.015011
v 0.042732 -0.256019 0.404001
v -0.424882 -0.254331 -0.244701
v -0.092889 -0.076165 -0.003498
v -0.424882 -0.254331 0.237706
v 0.057074 -0.260959 -0.442214
v -0.079477 -0.075989 -0.021949
v -0.412421 -0.254667 -0.263844
v -0.057861 -0.075989 -0.014925
v 0.353684 -0.254667 -0.014925
v 0.078689 -0.260959 -0.435191
v -0.058018 -0.076199 0.007857
v 0.064399 -0.255990 0.396956
v 0.352330 -0.254357 0.007857
vn -0.3307 -0.9140 0.2351
vn 0.4429 0.8364 -0.3231
vn -0.5478 -0.7549 0.3607
vn -0.5261 0.8345 -0.1639
vn -0.0732 -0.9933 -0.0890
vn 0.2568 0.9500 0.1775
vn -0.5432 -0.2549 -0.8000
vn 0.2065 0.9415 -0.2663
vn -0.7973 0.1740 -0.5779
vn 0.2708 0.9422 0.1972
vn -0.2797 -0.9534 0.1131
vn 0.5154 0.1245 0.8479
vn 0.1984 -0.7919 -0.5776
vn 0.8532 0.5183 0.0579
vn 0.4658 -0.4881 -0.7381
vn 0.2432 0.9512 0.1900
vn -0.5494 -0.7745 -0.3137
vn -0.5963 0.5646 0.5707
vn -0.0553 -0.9827 0.1765
vn -0.2890 0.3884 0.8750
vn 0.4325 0.6888 -0.5818
vn -0.5028 -0.8303 0.2405
vn 0.7261 0.5983 -0.3389
vn 0.1171 -0.9524 0.2813
vn 0.4335 0.8457 -0.3113
vn -0.5647 -0.7134 0.4150
vn 0.8263 0.5477 -0.1313
vn 0.2576 -0.7458 0.6143
vn -0.0243 0.9510 -0.3083
vn -0.7617 -0.5547 0.3349
vn 0.7631 0.4271 -0.4850
vn 0.1536 -0.9812 -0.1169
vn -0.7013 0.4495 -0.5532
vn -0.4817 -0.7809 0.3977
vn 0.0055 0.2174 -0.9761
vn 0.2993 -0.9512 0.0756
vn -0.1142 0.9296 -0.3505
vn 0.3047 0.1534 0.9400
vn -0.3510 0.1543 -0.9236
vn -0.0055 -0.9993 -0.0382
vn 0.1300 0.5857 -0.8000
vn 0.6149 -0.7882 -0.0253
vn -0.3101 0.9503 -0.0285
vn 0.0103 -0.2707 0.9626
vn -0.7247 0.5550 0.4084
vn 0.2031 -0.8042 0.5586
vn -0.9006 -0.0515 -0.4315
vn 0.3375 -0.9266 -0.1657
vn -0.3759 0.9267 0.0005
vn 0.9890 -0.1479 0.0013
vn -0.9639 0.2662 0.0051
vn 0.4560 -0.8899 0.0133
vn -0.7029 0.6417 -0.3070
vn 0.5963 -0.8020 -0.0355
vn -0.3441 0.9234 0.1700
vn 0.9008 0.0518 0.4312
vn 0.3039 -0.1578 -0.9395
vn -0.1170 0.9261 0.3586
vn -0.2407 -0.9537 -0.1804
vn -0.4642 0.4953 0.7343
vn 0.3779 -0.8510 -0.3647
vn 0.4852 0.1840 0.8548
vn 0.1322 -0.9051 -0.4040
vn 0.2345 0.6468 -0.7258
vn -0.7421 -0.4843 0.4634
vn -0.2483 0.9051 -0.3451
vn 0.0651 -0.7577 0.6494
vn 0.6597 0.5820 0.4754
vn -0.2138 -0.9768 -0.0134
vn 0.9439 0.3302 -0.0033
vn -0.6629 -0.3271 -0.6735
vn 0.1306 0.8746 -0.4670
vn -0.6402 -0.6800 0.3574
vn 0.2941 0.9207 0.2564
vn -0.1987 -0.8013 -0.5642
vn -0.2057 0.8306 -0.5175
vn -0.0386 -0.8228 -0.5670
vn 0.3594 0.9187 0.1639
vn -0.2326 -0.8537 -0.4660
vn 0.1334 0.8961 0.4233
vn -0.2454 0.9109 0.3318
vn 0.6802 -0.7268 -0.0952
vn -0.6805 0.5806 0.4469
vn -0.3288 -0.9219 0.2047
vn -0.4028 0.8934 -0.1991
vn 0.3286 -0.7816 -0.5302
vn -0.4064 0.9039 0.1336
vn 0.2924 -0.7047 0.6465
vn -0.6353 0.6229 -0.4565
vn 0.2564 -0.9419 0.2172
vn -0.5440 0.8154 -0.1978
vn -0.2577 -0.8438 0.4708
vn -0.5432 0.2549 -0.8000
vn 0.2065 -0.9415 -0.2663
vn -0.0732 0.9933 -0.0890
vn 0.2568 -0.9500 0.1775
vn -0.5478 0.7549 0.3607
vn -0.5261 -0.8345 -0.1639
vn -0.3307 0.9140 0.2351
vn 0.4429 -0.8364 -0.3231
vn 0.1984 0.7919 -0.5776
vn 0.8532 -0.5183 0.0579
vn -0.2797 0.9534 0.1131
vn 0.5154 -0.1245 0.8479
vn -0.7973 -0.1740 -0.5779
vn 0.2708 -0.9422 0.1972
vn -0.0553 0.9827 0.1765
vn -0.2890 -0.3884 0.8750
vn -0.5494 0.7745 -0.3137
vn -0.5963 -0.5646 0.5707
vn 0.4658 0.4881 -0.7381
vn 0.2432 -0.9512 0.1900
vn 0.4335 -0.8457 -0.3113
vn -0.5647 0.7134 0.4150
vn 0.7261 -0.5983 -0.3389
vn 0.1171 0.9524 0.2813
vn 0.4325 -0.6888 -0.5818
vn -0.5028 0.8303 0.2405
vn 0.7631 -0.4271 -0.4850
vn 0.1536 0.9812 -0.1169
vn -0.0243 -0.9510 -0.3083
vn -0.7617 0.5547 0.3349
vn 0.8263 -0.5477 -0.1313
vn 0.2576 0.7458 0.6143
vn -0.1142 -0.9296 -0.3505
vn 0.3047 -0.1534 0.9400
vn 0.0055 -0.2174 -0.9761
vn 0.2993 0.9512 0.0756
vn -0.7013 -0.4495 -0.5532
vn -0.4817 0.7809 0.3977
vn -0.3101 -0.9503 -0.0285
vn 0.0103 0.2707 0.9626
vn 0.1300 -0.5857 -0.8000
vn 0.6149 0.7882 -0.0253
vn -0.3510 -0.1543 -0.9236
vn -0.0055 0.9993 -0.0382
vn -0.3759 -0.9267 0.0005
vn 0.9890 0.1479 0.0013
vn -0.9006 0.0515 -0.4315
vn 0.3375 0.9266 -0.1657
vn -0.7247 -0.5550 0.4084
vn 0.2031 0.8042 0.5586
vn -0.3441 -0.9234 0.1700
vn 0.9008 -0.0518 0.4312
vn -0.7029 -0.6417 -0.3070
vn 0.5963 0.8020 -0.0355
vn -0.9639 -0.2662 0.0051
vn 0.4560 0.8899 0.0133
vn 0.3779 0.8510 -0.3647
vn 0.4852 -0.1840 0.8548
vn -0.2407 0.9537 -0.1804
vn -0.4642 -0.4953 0.7343
vn 0.3039 0.1578 -0.9395
vn -0.1170 -0.9261 0.3586
vn 0.0651 0.7577 0.6494
vn 0.6597 -0.5820 0.4754
vn -0.7421 0.4843 0.4634
vn -0.2483 -0.9051 -0.3451
vn 0.1322 0.9051 -0.4040
vn 0.2345 -0.6468 -0.7258
vn -0.6402 0.6800 0.3574
vn 0.2941 -0.9207 0.2564
vn -0.6629 0.3271 -0.6735
vn 0.1306 -0.8746 -0.4670
vn -0.2138 0.9768 -0.0134
vn 0.9439 -0.3302 -0.0033
vn -0.2326 0.8537 -0.4660
vn 0.1334 -0.8961 0.4233
vn -0.0386 0.8228 -0.5670
vn 0.3594 -0.9187 0.1639
vn -0.1987 0.8013 -0.5642
vn -0.2057 -0.8306 -0.5175
vn -0.4028 -0.8934 -0.1991
vn 0.3286 0.7816 -0.5302
vn -0.6805 -0.5806 0.4469
vn -0.3288 0.9219 0.2047
vn -0.2454 -0.9109 0.3318
vn 0.6802 0.7268 -0.0952
vn -0.5440 -0.8154 -0.1978
vn -0.2577 0.8438 0.4708
vn -0.6353 -0.6229 -0.4565
vn 0.2564 0.9419 0.2172
vn -0.4064 -0.9039 0.1336
vn 0.2924 0.7047 0.6465
usemtl None
s off
f 35//1 36//1 31//1 33//1
f 36//2 35//2 34//2 32//2
f 36//3 37//3 3//3 31//3
f 37//4 36//4 32//4 4//4
f 37//5 38//5 11//5 3//5
f 38//6 37//6 4//6 12//6
f 38//7 35//7 33//7 11//7
f 35//8 38//8 12//8 34//8
f 39//9 40//9 33//9 25//9
f 40//10 39//10 26//10 34//10
f 40//11 41//11 11//11 33//11
f 41//12 40//12 34//12 12//12
f 41//13 39//13 25//13 11//13
f 39//14 41//14 12//14 26//14
f 42//15 43//15 25//15 9//15
f 43//16 42//16 10//16 26//16
f 43//17 44//17 11//17 25//17
f 44//18 43//18 26//18 12//18
f 44//19 42//19 9//19 11//19
f 42//20 44//20 12//20 10//20
f 45//21 46//21 3//21 33//21
f 46//22 45//22 34//22 4//22
f 46//23 47//23 31//23 3//23
f 47//24 46//24 4//24 32//24
f 47//25 45//25 33//25 31//25
f 45//26 47//26 32//26 34//26
f 48//27 49//27 31//27 5//27
f 49//28 48//28 6//28 32//28
f 49//29 50//29 3//29 31//29
f 50//30 49//30 32//30 4//30
f 50//31 48//31 5//31 3//31
f 48//32 50//32 4//32 6//32
f 51//33 52//33 5//33 31//33
f 52//34 51//34 32//34 6//34
f 52//35 53//35 29//35 5//35
f 53//36 52//36 6//36 30//36
f 53//37 51//37 31//37 29//37
f 51//38 53//38 30//38 32//38
f 54//39 55//39 7//39 5//39
f 55//40 54//40 6//40 8//40
f 55//41 56//41 29//41 7//41
f 56//42 55//42 8//42 30//42
f 56//43 54//43 5//43 29//43
f 54//44 56//44 30//44 6//44
f 57//45 58//45 7//45 29//45
f 58//46 57//46 30//46 8//46
f 58//47 59//47 27//47 7//47
f 59//48 58//48 8//48 28//48
f 59//49 57//49 29//49 27//49
f 57//50 59//50 28//50 30//50
f 60//51 61//51 9//51 7//51
f 61//52 60//52 8//52 10//52
f 61//53 62//53 27//53 9//53
f 62//54 61//54 10//54 28//54
f 62//55 60//55 7//55 27//55
f 60//56 62//56 28//56 8//56
f 63//57 64//57 25//57 27//57
f 64//58 63//58 28//58 26//58
f 64//59 65//59 9//59 25//59
f 65//60 64//60 26//60 10//60
f 65//61 63//61 27//61 9//61
f 63//62 65//62 10//62 28//62
f 66//63 67//63 11//63 9//63
f 67//64 66//64 10//64 12//64
f 67//65 68//65 1//65 11//65
f 68//66 67//66 12//66 2//66
f 68//67 66//67 9//67 1//67
f 66//68 68//68 2//68 10//68
f 69//69 70//69 9//69 7//69
f 70//70 69//70 8//70 10//70
f 70//71 71//71 1//71 9//71
f 71//72 70//72 10//72 2//72
f 71//73 69//73 7//73 1//73
f 69//74 71//74 2//74 8//74
f 72//75 73//75 7//75 5//75
f 73//76 72//76 6//76 8//76
f 73//77 74//77 1//77 7//77
f 74//78 73//78 8//78 2//78
f 74//79 72//79 5//79 1//79
f 72//80 74//80 2//80 6//80
f 75//81 76//81 5//81 1//81
f 76//82 75//82 2//82 6//82
f 76//83 77//83 3//83 5//83
f 77//84 76//84 6//84 4//84
f 77//85 75//85 1//85 3//85
f 75//86 77//86 4//86 2//86
f 78//87 79//87 3//87 1//87
f 79//88 78//88 2//88 4//88
f 79//89 80//89 11//89 3//89
f 80//90 79//90 4//90 12//90
f 80//91 78//91 1//91 11//91
f 78//92 80//92 12//92 2//92
f 81//93 82//93 23//93 33//93
f 82//94 81//94 34//94 24//94
f 82//95 83//95 15//95 23//95
f 83//96 82//96 24//96 16//96
f 83//97 84//97 31//97 15//97
f 84//98 83//98 16//98 32//98
f 84//99 81//99 33//99 31//99
f 81//100 84//100 32//100 34//100
f 85//101 86//101 23//101 25//101
f 86//102 85//102 26//102 24//102
f 86//103 87//103 33//103 23//103
f 87//104 86//104 24//104 34//104
f 87//105 85//105 25//105 33//105
f 85//106 87//106 34//106 26//106
f 88//107 89//107 23//107 21//107
f 89//108 88//108 22//108 24//108
f 89//109 90//109 25//109 23//109
f 90//110 89//110 24//110 26//110
f 90//111 88//111 21//111 25//111
f 88//112 90//112 26//112 22//112
f 91//113 92//113 31//113 33//113
f 92//114 91//114 34//114 32//114
f 92//115 93//115 15//115 31//115
f 93//116 92//116 32//116 16//116
f 93//117 91//117 33//117 15//117
f 91//118 93//118 16//118 34//118
f 94//119 95//119 15//119 17//119
f 95//120 94//120 18//120 16//120
f 95//121 96//121 31//121 15//121
f 96//122 95//122 16//122 32//122
f 96//123 94//123 17//123 31//123
f 94//124 96//124 32//124 18//124
f 97//125 98//125 29//125 31//125
f 98//126 97//126 32//126 30//126
f 98//127 99//127 17//127 29//127
f 99//128 98//128 30//128 18//128
f 99//129 97//129 31//129 17//129
f 97//130 99//130 18//130 32//130
f 100//131 101//131 29//131 17//131
f 101//132 100//132 18//132 30//132
f 101//133 102//133 19//133 29//133
f 102//134 101//134 30//134 20//134
f 102//135 100//135 17//135 19//135
f 100//136 102//136 20//136 18//136
f 103//137 104//137 27//137 29//137
f 104//138 103//138 30//138 28//138
f 104//139 105//139 19//139 27//139
f 105//140 104//140 28//140 20//140
f 105//141 103//141 29//141 19//141
f 103//142 105//142 20//142 30//142
f 106//143 107//143 27//143 19//143
f 107//144 106//144 20//144 28//144
f 107//145 108//145 21//145 27//145
f 108//146 107//146 28//146 22//146
f 108//147 106//147 19//147 21//147
f 106//148 108//148 22//148 20//148
f 109//149 110//149 21//149 27//149
f 110//150 109//150 28//150 22//150
f 110//151 111//151 25//151 21//151
f 111//152 110//152 22//152 26//152
f 111//153 109//153 27//153 25//153
f 109//154 111//154 26//154 28//154
f 112//155 113//155 13//155 21//155
f 113//156 112//156 22//156 14//156
f 113//157 114//157 23//157 13//157
f 114//158 113//158 14//158 24//158
f 114//159 112//159 21//159 23//159
f 112//160 114//160 24//160 22//160
f 115//161 116//161 13//161 19//161
f 116//162 115//162 20//162 14//162
f 116//163 117//163 21//163 13//163
f 117//164 116//164 14//164 22//164
f 117//165 115//165 19//165 21//165
f 115//166 117//166 22//166 20//166
f 118//167 119//167 13//167 17//167
f 119//168 118//168 18//168 14//168
f 119//169 120//169 19//169 13//169
f 120//170 119//170 14//170 20//170
f 120//171 118//171 17//171 19//171
f 118//172 120//172 20//172 18//172
f 121//173 122//173 15//173 13//173
f 122//174 121//174 14//174 16//174
f 122//175 123//175 17//175 15//175
f 123//176 122//176 16//176 18//176
f 123//177 121//177 13//177 17//177
f 121//178 123//178 18//178 14//178
f 124//179 125//179 23//179 13//179
f 125//180 124//180 14//180 24//180
f 125//181 126//181 15//181 23//181
f 126//182 125//182 24//182 16//182
f 126//183 124//183 13//183 15//183
f 124//184 126//184 16//184 14//184
